<svg xmlns="http://www.w3.org/2000/svg" width="426.892" height="420" viewBox="0 0 426.892 420">
  <g id="LogoLoader" transform="translate(-512.169 -105.737)">
    <rect id="Rectangle_36" data-name="Rectangle 36" width="419" height="420" transform="translate(512.169 105.737)" fill="rgba(122,122,122,0)"/>
    <g id="FavIcon" transform="translate(513.639 156.796)">
      <path id="S" d="M82.362,4.144a190.2,190.2,0,0,1-43.9-5.051Q17.094-5.957,3.367-14.5L23.051-59.052A125.509,125.509,0,0,0,52.059-47.008,113.384,113.384,0,0,0,82.88-42.476q12.691,0,18.13-2.46t5.439-7.382q0-5.7-7.123-8.547T75.887-67.081a265.817,265.817,0,0,1-34.965-9.453A59.588,59.588,0,0,1,16.576-93.111q-10.36-11.525-10.36-31.21A53.764,53.764,0,0,1,15.8-155.4q9.583-13.986,28.62-22.015t46.232-8.029A167.854,167.854,0,0,1,127.3-181.43a114.8,114.8,0,0,1,31.727,11.785l-18.389,44.289q-26.677-13.468-50.505-13.468-23.569,0-23.569,11.4,0,5.439,6.993,8.158t23.051,5.827a237.036,237.036,0,0,1,34.965,8.936A60.828,60.828,0,0,1,156.307-88.06q10.49,11.4,10.49,31.08a53.171,53.171,0,0,1-9.583,30.951q-9.583,13.857-28.62,22.015T82.362,4.144Z" transform="translate(-0.552 250.941)" fill="#ff7b47"/>
      <path id="Path_36" data-name="Path 36" d="M34.915,68.243q-15.077,0-25-9.655T0,33.857Q0,18.78,9.919,9.39t25-9.39Q50,0,59.919,9.39T69.83,33.857q0,15.077-9.919,24.732T34.915,68.243Z" transform="translate(350.392 181.682) rotate(4.012)" fill="none" stroke="#ff7b47" stroke-width="10"/>
      <path id="Subtraction_3" data-name="Subtraction 3" d="M90.888,183.05H.5v-4.064c1.713-.606,3.407-1.268,5.037-1.966,12.679-5.433,22.345-12.869,28.73-22.1a53.617,53.617,0,0,0,9.62-31.071c0-13.111-3.543-23.608-10.53-31.2A61.345,61.345,0,0,0,8.525,76.14C6.013,75.249,3.312,74.374.5,73.54V47.84a146.122,146.122,0,0,1,17.127,7.37l18.46-44.46A113.354,113.354,0,0,0,7.348-.35h83.54a143.64,143.64,0,0,1,28.853,2.784,111.091,111.091,0,0,1,25.25,8.352A90.681,90.681,0,0,1,165.82,24.311,81.862,81.862,0,0,1,191.136,65.15a102.043,102.043,0,0,1,3.242,26.2,102.046,102.046,0,0,1-3.242,26.2,81.86,81.86,0,0,1-25.316,40.84,90.678,90.678,0,0,1-20.829,13.526,111.1,111.1,0,0,1-25.25,8.351,143.648,143.648,0,0,1-28.853,2.783ZM62.33,47.858v86.984H88.268c13.212,0,23.923-3.835,31.833-11.4s11.92-18.361,11.92-32.1-4.011-24.533-11.92-32.1-18.621-11.4-31.833-11.4Z" transform="translate(146.484 70.408)" fill="#e6f4f1"/>
    </g>
  </g>
</svg>
